<svg xmlns="http://www.w3.org/2000/svg" viewBox="0 0 813.54 999.5"><defs><style>.cls-1{fill:#fff;}</style></defs><g id="ref"><path class="cls-1" d="M813.54,733v1.47a2.22,2.22,0,0,0-.41.57c-9.48,31.21-22.65,60.87-37.77,89.71-16.44,31.39-36.68,60.32-57.9,88.58-14.13,18.82-29.26,36.77-47.28,52.06-15.77,13.38-33.1,24-53.34,29.2-21.87,5.61-43.65,4.1-65.32-1.28-14.71-3.65-28.48-9.86-42.24-16-23.64-10.54-48.07-17.52-74.13-18.53A197.71,197.71,0,0,0,360.24,970c-14.28,5.08-28.05,11.45-42.13,17-14.54,5.77-29.4,10.23-45.06,11.76-1.86.18-3.85-.31-5.61.71H252.31c-.15-.72-.76-.44-1.17-.48a99.77,99.77,0,0,1-31.2-8c-15.38-6.68-28.73-16.38-41-27.61-18-16.41-33.3-35.15-47.87-54.54C116,888.78,101,868.67,87.9,847.18c-26.74-44-47-91-61.95-140.22C12.28,662,3.45,616.07.8,569.05c-.16-2.76.25-5.61-.8-8.3V522.2c.9-.19.45-.92.47-1.38A382.59,382.59,0,0,1,9.27,455c9-39.52,24.35-76.24,48.19-109.19,23.46-32.43,52.77-58.11,88.51-76.28a231.25,231.25,0,0,1,81.91-24.14,186,186,0,0,1,61.52,3.45c18.47,4.27,36.15,10.85,53.71,17.82,15.89,6.3,31.58,13.15,48.13,17.67,12.75,3.49,25.56,4.4,38.52,1.17a242.55,242.55,0,0,0,28-9.06c20.52-7.81,40.73-16.45,61.72-23,20.62-6.44,41.61-11,63.26-11.68A259,259,0,0,1,655,249.39c54.67,13.83,98.55,43.52,131.4,89.44,1.19,1.66.87,2.29-.65,3.26a238.59,238.59,0,0,0-23.6,17.23c-30.14,25.1-53.44,55.26-67.81,91.94-14.56,37.19-17.88,75.63-12.15,115a202.63,202.63,0,0,0,31.41,83.07c21.09,32.11,49,56.79,82.46,75.42A107.65,107.65,0,0,0,813.54,733Z"/><path class="cls-1" d="M594.35,88.65c-12.74,35.09-32.35,65.81-60,91-25.31,23.07-54.49,39.39-88,47.46-12.48,3-25.12,4.35-38,2.75-3.83-.47-3.81-.43-4.35-4.25-3.12-22,0-43.53,6.54-64.45,6.36-20.23,17.21-50.09,44-81.7a242.4,242.4,0,0,1,52.45-45.36S536.79,15,565.64,6.78C578,3.29,596.81.24,597.79.47A1.59,1.59,0,0,0,599,.34.83.83,0,0,0,599.3,0h5.37c1.5,4,1.69,8.24,1.9,12.42C607.86,38.68,603.28,64.05,594.35,88.65Z"/></g></svg>