<svg xmlns="http://www.w3.org/2000/svg" viewBox="0 0 1000 1000"><defs><style>.cls-1{fill:#fff;}</style></defs><g id="ref"><path class="cls-1" d="M886.64,716.8v1.44a1.89,1.89,0,0,0-.4.55c-9.27,30.52-22.15,59.51-36.93,87.7-16.07,30.69-35.85,59-56.59,86.58-13.81,18.4-28.6,35.95-46.22,50.9-15.42,13.08-32.35,23.46-52.14,28.54-21.38,5.49-42.67,4-63.85-1.25-14.38-3.56-27.84-9.63-41.29-15.63-23.11-10.31-47-17.12-72.46-18.12a193.5,193.5,0,0,0-73.23,10.91c-14,5-27.42,11.2-41.19,16.67-14.21,5.64-28.74,10-44,11.49-1.82.18-3.76-.3-5.49.71H338c-.15-.72-.74-.43-1.14-.47a97.39,97.39,0,0,1-30.5-7.85c-15-6.52-28.09-16-40.11-27-17.57-16-32.56-34.36-46.8-53.31-14.73-19.62-29.41-39.28-42.16-60.28-26.14-43.06-45.94-88.93-60.56-137.07-13.36-44-22-88.85-24.59-134.81-.15-2.7.25-5.48-.78-8.11V510.71c.89-.19.44-.9.47-1.35a372.31,372.31,0,0,1,8.6-64.37c8.79-38.64,23.8-74.53,47.1-106.75,22.93-31.69,51.59-56.8,86.52-74.56a226.17,226.17,0,0,1,80.07-23.6,182,182,0,0,1,60.14,3.37c18.05,4.18,35.34,10.61,52.51,17.42,15.53,6.17,30.86,12.86,47,17.28,12.47,3.41,25,4.3,37.66,1.14a238.68,238.68,0,0,0,27.34-8.85c20.06-7.63,39.81-16.08,60.32-22.49,20.16-6.3,40.68-10.75,61.85-11.42a253.38,253.38,0,0,1,70.61,7.5c53.44,13.53,96.34,42.55,128.45,87.44,1.16,1.62.85,2.23-.63,3.18a230.9,230.9,0,0,0-23.08,16.85c-29.46,24.52-52.24,54-66.28,89.87-14.24,36.35-17.48,73.93-11.88,112.39A198.16,198.16,0,0,0,788.9,635c20.61,31.39,47.92,55.52,80.6,73.73A104.51,104.51,0,0,0,886.64,716.8Z"/><path class="cls-1" d="M672.38,86.9c-12.46,34.31-31.63,64.34-58.65,89-24.74,22.55-53.26,38.5-86,46.39-12.2,2.94-24.55,4.26-37.11,2.7-3.74-.47-3.72-.42-4.25-4.16-3.05-21.53,0-42.55,6.4-63,6.21-19.77,16.81-49,43-79.85a237,237,0,0,1,51.27-44.35S616.1,14.87,644.31,6.88c12-3.42,30.47-6.39,31.43-6.17a1.57,1.57,0,0,0,1.19-.13.78.78,0,0,0,.28-.33h5.25c1.47,3.92,1.65,8.05,1.86,12.14C685.58,38.06,681.11,62.86,672.38,86.9Z"/></g></svg>