<svg id="Layer_1" data-name="Layer 1" xmlns="http://www.w3.org/2000/svg" viewBox="0 0 805.74 1000">
    <defs>
        <style>
            .cls-1 {
                fill: #313131;
            }

            @media (prefers-color-scheme: dark) {
                .cls-1 {
                    fill: #fff;
                }
            }
        </style>
    </defs>
    <g id="give">
        <path class="cls-1"
              d="M650.05,571.51q-8.7,40.9-31,64.47-13.65,17.37-49.59,46.49t-55.79,40.29q-42.15,21.09-74.38,21.07H97.13L240.94,0H583.1q39.66,0,66.95,19.84,14.87,9.93,38.43,40.29t33.47,49q11.16,23.55,5,64.46Zm-101.66-7.44,76.86-390.51c1.65-8.25,2-13.21,1.24-14.88q-5-16.1-21.7-34.71t-26.65-23.55Q570.7,96.7,567,96.7H325.24L218.62,647.13H444.25a24.41,24.41,0,0,0,11.16-2.48q19.81-9.9,55.17-38.43T548.39,564.07Z"
              transform="translate(-97.13)"/>
        <path class="cls-1"
              d="M823.8,827.68q-8.68,40.91-31,64.46-13.65,17.39-49.58,46.49t-55.79,40.3Q645.27,1000,613.05,1000H270.88L414.69,256.17H756.85q39.66,0,66.95,19.83,14.87,9.94,38.43,40.29t33.47,49q11.16,23.57,5,64.47Zm-101.66-7.44L799,429.73q2.47-12.37,1.24-14.88-5-16.1-21.69-34.71t-26.66-23.55q-7.42-3.72-11.15-3.72H499L392.38,903.3H618a24.41,24.41,0,0,0,11.16-2.48q19.82-9.9,55.17-38.43T722.14,820.24Z"
              transform="translate(-97.13)"/>
    </g>
</svg>