<svg id="Layer_1" data-name="Layer 1" xmlns="http://www.w3.org/2000/svg" viewBox="0 0 1000 1000">
    <defs>
        <style>
            .cls-1{
                fill: #e6e7e8;
            }
            .cls-2 {
                fill: #313131;
            }

            @media (prefers-color-scheme: dark) {
                .cls-1 {
                    fill: #313131;
                }
                .cls-2 {
                    fill: #e6e7e8;
                }
            }
        </style>
    </defs>
    <rect class="cls-1" width="1000" height="1000" rx="196.26"/>
    <g id="give">
        <path class="cls-2"
              d="M622.19,558.23q-7.08,33.32-25.24,52.5-11.13,14.14-40.38,37.86T511.14,681.4q-34.33,17.18-60.58,17.16H171.93L289,92.84H567.67q32.3,0,54.52,16.15,12.1,8.1,31.29,32.81t27.26,39.88q9.09,19.19,4,52.49Zm-82.79-6.05,62.59-318q2-10.08,1-12.11-4-13.11-17.66-28.27t-21.71-19.18q-6.06-3-9.08-3H357.69L270.87,619.82H454.6a20,20,0,0,0,9.09-2q16.14-8.07,44.92-31.3T539.4,552.18Z"/>
        <path class="cls-2"
              d="M763.68,766.84q-7.08,33.31-25.24,52.49-11.13,14.16-40.38,37.86T652.63,890q-34.33,17.18-60.57,17.16H313.42L430.53,301.44H709.16q32.3,0,54.52,16.15,12.11,8.1,31.29,32.81t27.26,39.88q9.09,19.19,4,52.5Zm-82.79-6.06,62.6-318q2-10.08,1-12.12-4-13.11-17.66-28.26t-21.71-19.19q-6-3-9.08-3H499.18L412.36,828.42H596.09a19.91,19.91,0,0,0,9.09-2q16.14-8.07,44.92-31.3T680.89,760.78Z"/>
    </g>
</svg>