<?xml version="1.0" encoding="utf-8"?>
<!-- Generator: Adobe Illustrator 26.0.2, SVG Export Plug-In . SVG Version: 6.00 Build 0)  -->
<svg version="1.1" id="Layer_1" xmlns="http://www.w3.org/2000/svg" xmlns:xlink="http://www.w3.org/1999/xlink" x="0px" y="0px"
	 viewBox="0 0 1070.6 1070.6" style="enable-background:new 0 0 1070.6 1070.6;" xml:space="preserve">
<style type="text/css">
	.st0{display:none;}
	.st1{display:inline;}
	.st2{fill:#FFFFFF;}
	.st3{fill:#F1F1F1;stroke:#F1F1F1;stroke-width:18;stroke-miterlimit:10;}
	.st4{fill:#F1F1F1;}
	.st5{fill:none;stroke:#F1F1F1;stroke-width:49.5073;stroke-linejoin:round;stroke-miterlimit:10;}
	.st6{fill:#593F61;}
	.st7{font-family:'BlenderPro-BookItalic';}
	.st8{font-size:46.259px;}
	.st9{fill:none;}
</style>
<g id="bg">
	<g id="Layer_4" class="st0">
		<g id="Psw3PF.tif" class="st1">
			<g>
				
					<image style="overflow:visible;opacity:0.37;enable-background:new    ;" width="1271" height="1267" xlink:href="C9CE6F52B6461C9D.png"  transform="matrix(0.2391 0 0 0.2391 -607.8814 -11.7066)">
				</image>
				<g>
					
						<image style="overflow:visible;enable-background:new    ;" width="579" height="579" xlink:href="C9CE6F52B6461C94.png"  transform="matrix(0.2383 0 0 0.2383 -524.9614 70.8553)">
					</image>
					<g>
						<circle class="st2" cx="-455.9" cy="139.8" r="23.9"/>
					</g>
				</g>
			</g>
			
				<image style="overflow:visible;enable-background:new    ;" width="111" height="148" id="Layer_0_00000030484952862543552390000013495997217485365941_" xlink:href="C9CE6F52B6461C95.png"  transform="matrix(0.5929 -0.2163 0.2163 0.5929 -510.7096 95.6608)">
			</image>
		</g>
	</g>
</g>
<g id="Layer_2_00000121959271460245199170000002302529853566494604_">
</g>
<g id="Layer_3">
	<g>
		<g>
			<path class="st3" d="M955.1,214.6c35.6,0,64.5,28.9,64.5,64.5v512.3c0,35.6-28.9,64.5-64.5,64.5H115.5
				C79.9,855.9,51,827,51,791.4V279.1c0-35.6,28.9-64.5,64.5-64.5H955.1 M955.1,182.6H115.5c-53.3,0-96.6,43.2-96.6,96.6v512.3
				c0,53.3,43.2,96.6,96.6,96.6h839.6c53.3,0,96.6-43.2,96.6-96.6V279.1C1051.6,225.8,1008.4,182.6,955.1,182.6L955.1,182.6z"/>
		</g>
		<g>
			<g>
				<ellipse class="st4" cx="710.9" cy="382" rx="72.1" ry="72.1"/>
				<path class="st4" d="M710.9,326.4c30.7,0,55.6,25,55.6,55.6s-25,55.6-55.6,55.6s-55.6-25-55.6-55.6S680.2,326.4,710.9,326.4
					 M710.9,293.3c-49,0-88.6,39.7-88.6,88.6s39.7,88.6,88.6,88.6s88.6-39.7,88.6-88.6C799.5,333,759.8,293.3,710.9,293.3
					L710.9,293.3z"/>
			</g>
			<g>
				<ellipse class="st4" cx="821.2" cy="382" rx="72.1" ry="72.1"/>
				<path class="st4" d="M821.2,326.4c30.7,0,55.6,25,55.6,55.6s-25,55.6-55.6,55.6s-55.6-25-55.6-55.6S790.5,326.4,821.2,326.4
					 M821.2,293.3c-49,0-88.6,39.7-88.6,88.6s39.7,88.6,88.6,88.6s88.6-39.7,88.6-88.6C909.8,333,870.1,293.3,821.2,293.3
					L821.2,293.3z"/>
			</g>
		</g>
		<line class="st5" x1="165.3" y1="710.9" x2="535.3" y2="710.9"/>
		<line class="st5" x1="659.8" y1="710.9" x2="844.8" y2="710.9"/>
	</g>
	<text transform="matrix(1 0 0 1 252.9727 723.054)" class="st6 st7 st8">Дай Доступ</text>
	<text transform="matrix(1 0 0 1 698.8832 725.0543)" class="st6 st7 st8">07/32</text>
</g>
<g id="надпись">
	<rect x="1757.1" y="837.1" class="st9" width="0" height="3.4"/>
</g>
</svg>
