<svg xmlns="http://www.w3.org/2000/svg" viewBox="0 0 910.58 844.27"><defs><style>.cls-1{fill:#fff;}</style></defs><g id="Layer_2" data-name="Layer 2"><g id="Layer_3" data-name="Layer 3"><path class="cls-1" d="M456,75.62C352.68-26.92,179.24-21,82.13,88.11-159.82,362.37,194,610.25,357.58,800.6c51.78,58.24,145.08,58.2,196.86,0L829.91,503.29C1065.11,248.66,738.75-172.72,456,75.62Zm334.25,386.5L514.79,759.43c-31,34.89-86.52,34.85-117.55,0C270.65,598.66-90.38,363.39,121.77,129.28c83.22-94,234.54-89.92,313.43,7.4,13.35,16.1,36.56,9.93,48.18-7.4,80.91-90.94,226-90.92,306.88,0C875.28,221,875.28,370.36,790.26,462.12Z"/></g></g></svg>