<svg id="logo" xmlns="http://www.w3.org/2000/svg" viewBox="0 0 658.41 656.14"><defs><style>.cls-1{fill:#92c4ea;}.cls-2{fill:#e8fdfb;}.cls-3{fill:#3f7d9d;}</style></defs><g id="vector"><g id="bg"><path id="background" class="cls-1" d="M124.54,66.72a322.82,322.82,0,0,1,50.14-31.23c9-4.48,43.37-21.12,92.88-29.59C291.12,1.87,341.4-6.22,404,8.36,480.07,26.09,530,67,551.13,86.45a332.67,332.67,0,0,1,79.73,113.43C640.72,223,671.41,297.83,652.23,393c-21.66,107.54-92.71,170.37-120.82,192.33-24,18.74-87.33,62.94-180,69.87-31.57,2.36-132.06,5.29-224.39-65.76C45.53,526.79,18.06,443.17,8.65,402.9,2.45,376.4-12.29,298.71,21,209.74,28.25,190.29,57.29,118.2,124.54,66.72Z"/></g><g id="lights"><path id="l1" class="cls-2" d="M179.34,73a286.59,286.59,0,0,1,38.83-19,298.91,298.91,0,0,1,49.17-14.67,311.67,311.67,0,0,1,91.46-5.17A304.35,304.35,0,0,1,472.69,68.69a22.17,22.17,0,0,1,6.9,6,21,21,0,0,1,3.45,6.9A17.6,17.6,0,0,1,483,92,17.2,17.2,0,0,1,470.1,103.2a16.7,16.7,0,0,1-8.63-.86s-35.27-12.69-74.2-25a189.73,189.73,0,0,0-38.82-7.77c-30.92-3.36-54.88,1-69,3.45a269.81,269.81,0,0,0-82.82,29.34,24.44,24.44,0,0,1-5.18.86c-2.49.14-6.61.37-10.36-1.72-5.83-3.27-7.21-10.19-7.76-13a15,15,0,0,1,0-7.76A14.46,14.46,0,0,1,179.34,73Z"/><path id="l2" class="cls-2" d="M31.32,300.65a258.13,258.13,0,0,0-1.76,43c.31,7.3,2,39,15.78,78.88C49.47,434.4,63,471.1,93.55,511a330.19,330.19,0,0,0,68.36,66.61,26.58,26.58,0,0,0,10.52.88c3.31-.4,8.66-1,12.27-5.26,2.38-2.78,2.89-6,3.51-9.64a16.82,16.82,0,0,0,0-7,14.22,14.22,0,0,0-2.63-5.26c-2.76-2.08-6.71-5.08-11.4-8.77-8.73-6.87-19.61-15.77-25.41-21-6.67-6-15.3-15.12-28.93-35.94-22.29-34-37.63-57.59-47.33-92.91a239.44,239.44,0,0,1-7-87.65,15.81,15.81,0,0,0-2.63-6.13,17.17,17.17,0,0,0-8.76-6.14,20,20,0,0,0-9.65-.87C36.55,293.23,32.21,299.34,31.32,300.65Z"/><path id="l3" class="cls-2" d="M589.64,303.28a18.52,18.52,0,0,1,4.38-7,18,18,0,0,1,7-4.38,17.78,17.78,0,0,1,10.52,0,19.59,19.59,0,0,1,11.4,8.76A17.72,17.72,0,0,1,624.7,305a301.55,301.55,0,0,1-9.64,101.68,312.56,312.56,0,0,1-37.69,84.14c-10.68,16.81-26.78,41.68-56.1,65.74a240.48,240.48,0,0,1-31.55,21.91,17.24,17.24,0,0,1-7.89,0,17.73,17.73,0,0,1-7-3.51,19,19,0,0,1-7-9.64,18.68,18.68,0,0,1,1.75-14c4-2.87,9.48-7,15.78-12.27,46-38.44,67.6-81.52,71.87-90.28,16-32.8,20.85-60.74,26.29-92A464.41,464.41,0,0,0,589.64,303.28Z"/></g><path class="cls-3" d="M222.15,134.69c7.4-4,36.66-19.25,78.11-23.62,81-8.53,140,31.64,151.68,40A223.57,223.57,0,0,1,521,231c27.74,54,25.15,103.1,24.52,112.63C541,411.13,504.55,455.29,493.72,468c-16.21,19.07-60.94,65.05-134.42,75.39-72.62,10.22-126.59-20.94-141.7-30-22.77-13.62-63.47-43.49-88.1-98.1-6.79-15-27.54-65.63-15.44-129.88C115.85,275.94,135.17,181.79,222.15,134.69Z"/><path id="V" class="cls-2" d="M370.43,202h89.13q-47.71,126.51-95.44,253l-90.93-1.8L203,224.52h74.73Q298.86,292.05,320,359.58"/></g></svg>