<svg id="gdrive" xmlns="http://www.w3.org/2000/svg" viewBox="0 0 1000 1000"><defs><style>.cls-1,.cls-8{fill:none;}.cls-2{fill:#00b847;}.cls-3{fill:#0092ff;}.cls-4{fill:#0073e6;}.cls-5{fill:#ffbe00;}.cls-6{fill:#ff372f;}.cls-7{fill:#009126;}.cls-8{stroke:#fff;stroke-miterlimit:10;stroke-width:21px;}</style></defs><path class="cls-1" d="M497.57,343.07h0Q410,496,324.29,650q176.23-.54,352.44-3.1l0-.06h0q-89-152.72-178.33-305.2C498.11,342.14,497.84,342.6,497.57,343.07Z"/><path class="cls-2" d="M635.82,64.05c.5.17,1,.36,1.52.56C636.83,64.41,636.32,64.22,635.82,64.05Z"/><path class="cls-2" d="M645.21,68.52c.55.34,1.09.69,1.61,1C646.3,69.21,645.76,68.86,645.21,68.52Z"/><path class="cls-2" d="M619,129l32.48-55.88A49.82,49.82,0,0,0,647,69.68c1.27.86,2.43,1.73,3.5,2.6Z"/><path class="cls-2" d="M644.74,68.24c-.63-.38-1.28-.76-2-1.13-1-.55-2-1-3-1.49,1,.46,2,.94,3,1.49C643.46,67.48,644.11,67.86,644.74,68.24Z"/><path class="cls-2" d="M241.14,650.17q37.5,0,75-.11h0c2.53,0,5.05,0,7.58,0h.56q85.75-154,173.28-307L323.27,89.42,21.59,614.82a112.13,112.13,0,0,0-5.86,36.52c.13-.67.26-1.32.4-1.94Q128.63,650.21,241.14,650.17Z"/><path class="cls-2" d="M628.35,62c1.52.28,3.11.66,4.73,1.13C631.46,62.7,629.87,62.32,628.35,62Z"/><path class="cls-3" d="M679.88,652.33l-3.15-5.4Q500.53,649.5,324.29,650h-.56L130.54,876,23.8,689,139.26,891.3a104.95,104.95,0,0,0,54.72,36l603.85-.89a110.87,110.87,0,0,0,17.42-5,109.1,109.1,0,0,0,16.37-7.79q-23.91-41.29-47.88-82.57Q731.87,741.67,679.88,652.33Z"/><path class="cls-3" d="M15.36,653.61a49.85,49.85,0,0,0-.43,8.34c.05,1.59.18,3.14.37,4.63-.19-1.49-.32-3-.37-4.63A49.85,49.85,0,0,1,15.36,653.61Z"/><path class="cls-3" d="M17.08,674.85a50.16,50.16,0,0,1-1.78-8.27A50.16,50.16,0,0,0,17.08,674.85Z"/><path class="cls-3" d="M241.14,650.17q37.5,0,75-.11h0Q278.65,650.17,241.14,650.17Z"/><path class="cls-4" d="M323.73,650h0c-2.53,0-5.05,0-7.58,0h0q-37.5.11-75,.11-112.5,0-225-.77c-.14.62-.27,1.27-.4,1.94s-.26,1.48-.37,2.27a49.85,49.85,0,0,0-.43,8.34c.05,1.59.18,3.14.37,4.63a50.16,50.16,0,0,0,1.78,8.27A54.63,54.63,0,0,0,23.8,689L130.54,876Z"/><path class="cls-5" d="M984.94,653.28a105,105,0,0,1-7.33,33.05C921.75,798.33,874.72,876.39,864,887.51a193.71,193.71,0,0,1-23.85,20.74c-3.43,2.45-6.37,4.35-8.4,5.62h0c2-1.27,5-3.17,8.4-5.62A193.71,193.71,0,0,0,864,887.51c10.72-11.12,57.75-89.18,113.61-201.18a105,105,0,0,0,7.33-33.05c.06-1,.09-2.08.12-3.11C985,651.19,985,652.23,984.94,653.28Z"/><path class="cls-5" d="M570.09,217q-34.11,59-68,118.07l-3.76,6.59q89.39,152.47,178.33,305.2H985.09c0,1,0,1.93,0,2.91a105.58,105.58,0,0,0-3.37-28.9L680.35,96.45c-1.71-2-3.64-4-5.8-6.15-1-1-3.71-3.61-7.22-6.5a114.47,114.47,0,0,0-15.76-10.86l-.09.15L619,129Z"/><path class="cls-5" d="M679.88,652.33q52,89.32,103.86,178.74Q731.87,741.67,679.88,652.33Z"/><path class="cls-6" d="M864,887.51c10.72-11.12,57.75-89.18,113.61-201.18a105,105,0,0,0,7.33-33.05c.06-1,.09-2.09.12-3.11,0-.13,0-.26,0-.39,0-1,0-1.95,0-2.91H676.69l0,.06,3.15,5.4q52,89.32,103.86,178.74,23.94,41.28,47.88,82.57l.13.23h0c2-1.27,5-3.17,8.4-5.62A193.71,193.71,0,0,0,864,887.51Z"/><path class="cls-7" d="M497.57,343.07c.27-.47.54-.93.8-1.4l3.76-6.59Q536,276,570.09,217c27.15-46.93,25.54-47.76,48.91-88,13.74-23.68,25.41-42.92,33.28-55.72-1.13-.77-4.36-3-5.28-3.57l-.18-.12c-.52-.35-1.06-.7-1.61-1l-.47-.28c-.63-.38-1.28-.76-2-1.13-1-.55-2-1-3-1.49-.8-.36-1.6-.7-2.39-1-.51-.2-1-.39-1.52-.56-.93-.33-1.84-.62-2.74-.88-1.62-.47-3.21-.85-4.73-1.13-1.77-.34-3.47-.56-5.06-.71a55.55,55.55,0,0,0-8.35-.11L382,59.75a104.52,104.52,0,0,0-23,6.13c-1.49.59-3,1.23-4.57,1.92s-3.12,1.45-4.7,2.26c-2.43,1.23-4.79,2.6-4.79,2.6l-1.14.67c-2.35,1.4-5.14,3.18-8.18,5.4-.5.36-1,.75-1.54,1.14A104.86,104.86,0,0,0,323.4,89.2l-.13.22h0Z"/><path class="cls-8" d="M985.09,647.16v-.29h0a105.49,105.49,0,0,0-3.39-26L680.35,96.45c-1.71-2-3.64-4-5.8-6.15-1-1-3.71-3.61-7.22-6.5S649.5,71.49,649,71.1c-.1-.08-1.4-1-2-1.42l-.18-.12c-.52-.35-1.06-.7-1.61-1l-.47-.28c-.63-.38-1.28-.76-2-1.13-1-.55-2-1-3-1.49-.8-.36-1.6-.7-2.39-1-.51-.2-1-.39-1.52-.56-.93-.33-1.84-.62-2.74-.88-1.62-.47-3.21-.85-4.73-1.13-1.77-.34-3.47-.56-5.06-.71a55.55,55.55,0,0,0-8.35-.11L382,59.75a104.52,104.52,0,0,0-23,6.13c-1.49.59-3,1.23-4.57,1.92s-3.12,1.45-4.7,2.26c-2.43,1.23-4.79,2.6-4.79,2.6l-1.14.67c-2.35,1.4-5.14,3.18-8.18,5.4-.5.36-1,.75-1.54,1.14A104.86,104.86,0,0,0,323.4,89.2l-.13.22h0L21.59,614.82a112.13,112.13,0,0,0-5.86,36.52c-.13.73-.26,1.48-.37,2.27a49.67,49.67,0,0,0-.46,6.11c0,.73,0,1.47,0,2.23.05,1.59.18,3.14.37,4.63a50.16,50.16,0,0,0,1.78,8.27A54.63,54.63,0,0,0,23.8,689L139.26,891.3a104.95,104.95,0,0,0,54.72,36l603.85-.89a110.87,110.87,0,0,0,17.42-5,109.1,109.1,0,0,0,16.37-7.79l.13.23h0l1.68-1.07,2-1.3c1.42-.94,3-2,4.73-3.25l.32-.23.54-.4.36-.26c1.83-1.37,5.55-4.21,10-8.06l1-.84c1-.85,2-1.75,3.05-2.69,1.73-1.57,3.52-3.24,5.32-5q1.08-1.07,2.16-2.16l1.08-1.1c.34-.35.71-.76,1.11-1.24s.85-1,1.32-1.62l.73-1c15-19.71,59-94.11,110.45-197.36a105,105,0,0,0,7.33-33.05c.06-1,.09-2.08.12-3.11,0-.13,0-.26,0-.39C985.09,648.89,985.09,648,985.09,647.16Z"/></svg>