<svg id="gdrive" xmlns="http://www.w3.org/2000/svg" viewBox="0 0 1000 1000"><defs><style>.cls-1{fill:none;}.cls-2{fill:#00b847;}.cls-3{fill:#0092ff;}.cls-4{fill:#0073e6;}.cls-5{fill:#ffbe00;}.cls-6{fill:#ff372f;}.cls-7{fill:#009126;}</style></defs><path class="cls-1" d="M497.5,338.54h0Q407.34,496.12,319,654.74q181.53-.54,363-3.19l0-.06h0q-91.62-157.32-183.7-314.4Z"/><path class="cls-2" d="M639.91,51.1c.52.19,1,.38,1.57.59C641,51.48,640.43,51.29,639.91,51.1Z"/><path class="cls-2" d="M649.58,55.72c.57.35,1.13.7,1.67,1.06C650.71,56.42,650.16,56.07,649.58,55.72Z"/><path class="cls-2" d="M622.59,118,656,60.42a51.28,51.28,0,0,0-4.61-3.51c1.31.88,2.51,1.78,3.6,2.67Z"/><path class="cls-2" d="M649.1,55.42c-.65-.39-1.32-.78-2-1.16C646,53.7,645,53.2,644,52.73c1,.47,2.08,1,3.13,1.53C647.78,54.64,648.45,55,649.1,55.42Z"/><path class="cls-2" d="M233.34,654.89q38.64,0,77.27-.12h0l7.81,0H319q88.33-158.61,178.5-316.21Q407.73,207.88,317.94,77.25L7.18,618.48a115.05,115.05,0,0,0-6,37.61c.13-.69.26-1.36.41-2Q117.44,654.92,233.34,654.89Z"/><path class="cls-2" d="M632.22,49c1.57.29,3.2.68,4.87,1.16C635.42,49.72,633.79,49.33,632.22,49Z"/><path class="cls-3" d="M685.3,657.11l-3.25-5.56q-181.51,2.66-363,3.19h-.59q-99.49,116.4-199,232.81l-110-192.7L128.39,903.29a108,108,0,0,0,56.37,37.11l622-.92a113.93,113.93,0,0,0,34.81-13.18Q817,883.76,792.29,841.24,738.86,749.14,685.3,657.11Z"/><path class="cls-3" d="M.76,658.43A50.63,50.63,0,0,0,.31,667c0,1.65.18,3.24.38,4.77-.2-1.53-.33-3.12-.38-4.77A50.63,50.63,0,0,1,.76,658.43Z"/><path class="cls-3" d="M2.53,680.32a52.05,52.05,0,0,1-1.84-8.53A52.05,52.05,0,0,0,2.53,680.32Z"/><path class="cls-3" d="M233.34,654.89q38.64,0,77.27-.12h0Q272,654.88,233.34,654.89Z"/><path class="cls-4" d="M318.41,654.75h0l-7.81,0h0q-38.64.11-77.27.12-115.89,0-231.79-.79c-.15.63-.28,1.3-.41,2s-.27,1.53-.38,2.34A50.63,50.63,0,0,0,.31,667c0,1.65.18,3.24.38,4.77a52.05,52.05,0,0,0,1.84,8.53,56,56,0,0,0,6.92,14.54l110,192.7Q218.92,771.16,318.41,654.75Z"/><path class="cls-5" d="M999.55,658.09a108.37,108.37,0,0,1-7.54,34C934.46,807.51,886,887.92,875,899.38a200.06,200.06,0,0,1-24.57,21.37c-3.54,2.52-6.57,4.48-8.65,5.78h0c2.08-1.3,5.11-3.26,8.65-5.78A200.06,200.06,0,0,0,875,899.38c11-11.46,59.49-91.87,117-207.24a108.31,108.31,0,0,0,7.54-34c.06-1.08.1-2.14.13-3.2C999.65,655.94,999.61,657,999.55,658.09Z"/><path class="cls-5" d="M572.2,208.68q-35.13,60.73-70,121.62c-1.3,2.27-2.58,4.53-3.88,6.79Q590.41,494.17,682,651.49H999.71c0,1,0,2,0,3a108.56,108.56,0,0,0-3.47-29.78L685.78,84.49c-1.76-2-3.74-4.15-6-6.34-1-1-3.82-3.72-7.44-6.7a118.48,118.48,0,0,0-16.24-11.19l-.09.16L622.59,118Z"/><path class="cls-5" d="M685.3,657.11q53.58,92,107,184.13Q738.86,749.14,685.3,657.11Z"/><path class="cls-6" d="M875,899.38c11-11.46,59.49-91.87,117-207.24a108.37,108.37,0,0,0,7.54-34c.06-1.08.1-2.15.13-3.2v-.4c0-1,0-2,0-3H682l0,.06,3.25,5.56q53.58,92,107,184.13Q817,883.77,841.61,926.3l.14.23h0c2.08-1.3,5.11-3.26,8.65-5.78A200.06,200.06,0,0,0,875,899.38Z"/><path class="cls-7" d="M497.5,338.54l.82-1.45c1.3-2.26,2.58-4.52,3.88-6.79q34.86-60.89,70-121.62c28-48.35,26.31-49.2,50.39-90.7,14.15-24.38,26.18-44.21,34.28-57.4-1.16-.79-4.5-3-5.44-3.67l-.18-.13c-.54-.36-1.1-.71-1.67-1.06l-.48-.3c-.65-.39-1.32-.78-2-1.16C646,53.7,645,53.2,644,52.73c-.83-.38-1.66-.72-2.47-1-.53-.21-1.05-.4-1.57-.59q-1.42-.49-2.82-.9c-1.67-.48-3.3-.87-4.87-1.16-1.83-.35-3.58-.58-5.22-.73a56.21,56.21,0,0,0-8.6-.11l-240-1.52A108,108,0,0,0,354.8,53q-2.32.91-4.71,2c-1.6.72-3.21,1.49-4.85,2.33-2.5,1.27-4.93,2.68-4.93,2.68-.38.21-.77.44-1.17.68-2.43,1.45-5.3,3.29-8.43,5.57l-1.58,1.17A108.55,108.55,0,0,0,318.07,77l-.13.24h0Z"/></svg>