<svg id="figure" xmlns="http://www.w3.org/2000/svg" viewBox="0 0 919.92 936.21"><defs><style>.cls-1{fill:#ffe300;}.cls-2{fill:#cf8629;}.cls-3{fill:#d08629;}</style></defs><path id="main" class="cls-1" d="M328.63,308.19l-249.52,39c-1.62.07-11.13.65-17.83,8.65a24.51,24.51,0,0,0-5.57,14.5L88.05,606.77a28.64,28.64,0,0,0,25.65,17.85L368,591.16q16.74,121,33.46,242a34.19,34.19,0,0,0,10,22.3,33.65,33.65,0,0,0,17.84,8.93l227.53-30.12a33.19,33.19,0,0,0,18.95-13.17,32.18,32.18,0,0,0,5.28-14.79q-17.43-127.87-34.87-255.75l250.45-31.7a30.34,30.34,0,0,0,23.25-26.42Q905.13,374.1,890.33,255.74a67.47,67.47,0,0,0-26.42-18L609.23,272.65q-18-125.23-35.93-250.46A30.65,30.65,0,0,0,562.73,5.28,29.44,29.44,0,0,0,552.16,0l-242,31.7a33,33,0,0,0-13.74,26.42Q312.53,183.16,328.63,308.19Z"/><g id="shadow"><path class="cls-2" d="M60.09,362.4c-2.77,3.76-7,9.3-12.44,15.76-6.36,7.53-7.46,8.11-14.92,16.58C18.44,411,22.61,408.73,12,420.45c-3.95,4.36-7.76,8.23-9.95,14.92-.65,2-1.21,4.38-1.66,10.78a158.64,158.64,0,0,0,0,22.39C1.8,487.92,2.88,495.9,2.88,495.9c5.24,38.71,1.15,16,7.46,58.88,7.84,53.26,18.05,114.89,19.9,126a28.79,28.79,0,0,0,9.12,10.78,29.5,29.5,0,0,0,14.1,5c24.38,2.74,41.85-.22,48.92-2.49h0L170,684.17l140.49-18.28q5.33,41.88,10.78,83.75,8.55,65.54,17.42,131l5,36.48a29.2,29.2,0,0,0,10.78,14.1,28.89,28.89,0,0,0,14.1,5l228.66-23.76a48.34,48.34,0,0,0,10.15-5.26,49.05,49.05,0,0,0,11.74-11.25l54.6-72.5L431.58,861.58c-6-.53-12.7-2.35-17.41-7.46-4.92-5.33-5.58-12-5.81-14.09-1.6-14.48-16.64-116.13-37.31-256.23L116.48,621.11a24,24,0,0,1-27.36-19.9Q74.6,481.81,60.09,362.4Z"/><path class="cls-2" d="M259.21,320.8,330,313,298.5,51.25C269.15,89,248.06,116.93,244.82,122c-1.95,3.08-3.5,6.23-3.5,6.23a66.14,66.14,0,0,0-3.5,8.55l.78,8.56Z"/><path class="cls-2" d="M655.46,621.38,646,550.86l256.84-35.35c-15.38,22.1-19,30.84-34.37,52.94-.78,2-15.26,21.48-22.09,25.62-6.26,3.79-26.62,9.5-29.23,9.86Z"/></g><g id="symbols"><path id="circle" class="cls-3" d="M853.15,366.3a101.47,101.47,0,0,0-23.79-40.45,88.32,88.32,0,0,0-33.31-22.2c-15.61-5.74-28.61-5.23-40.45-4.76-10.71.42-21.15.93-33.31,6.34-9.44,4.21-15.73,9.5-21.41,14.28-5,4.25-13.43,11.3-20.62,22.21A92.44,92.44,0,0,0,666,386.92c-1.18,24.11,7.45,41.68,12.69,52.34,5.55,11.32,11.88,24.2,26.17,34.9,14.75,11,29.68,13.54,38.86,15.07a103.1,103.1,0,0,0,45.2-2.38,97.93,97.93,0,0,0,42-25.38A96.71,96.71,0,0,0,854.74,421C861.88,395.51,855.69,374.5,853.15,366.3Zm-29.34,33.31c-.49,6.23-2.56,28.28-21.41,44.41-22,18.84-48.87,14.15-52.35,13.48-34.77-6.67-47.64-40-48.38-42-1.39-3.8-10.51-30.08,4.76-55.51,13.37-22.26,35.93-28.07,41.24-29.35a59.28,59.28,0,0,1,26.17-.79c19.29,3.88,30.63,16.61,34.11,20.62C825.63,370.87,824.14,395.29,823.81,399.61Z"/><path id="triangle" class="cls-3" d="M433.83,58.15q-38.68,99-77.35,197.93L565.77,226.5Zm9.86,63.7q32.6,40.58,65.21,81.14L407.29,214.37Q425.49,168.11,443.69,121.85Z"/><path id="rectangle" class="cls-3" d="M283.32,370.72,112.87,394.44Q123,482.31,133.08,570.17l176.6-23.72ZM162.07,534.15q-7-55.8-14.06-111.59L257.84,407.3q7,55.51,14.06,111Z"/><g id="cross"><path class="cls-3" d="M446.78,789.35,578.32,613.12l27,18.55L471.23,807.9Z"/><path class="cls-3" d="M427.89,656.42l19.73-24.75,173.7,132.39-19.83,26.36Z"/></g></g></svg>