<svg id="figure" xmlns="http://www.w3.org/2000/svg" viewBox="0 0 919.92 936.21"><defs><style>.cls-1,.cls-3{fill:#cf8629;}.cls-1{stroke:#fff;stroke-miterlimit:10;stroke-width:30px;}.cls-2{fill:#ffe300;}.cls-4{fill:#d08629;}</style></defs><path id="background" class="cls-1" d="M867.41,267.05a64,64,0,0,0-13-11,63.31,63.31,0,0,0-12-6l-241.12,33L567.26,46a29,29,0,0,0-10-16,27.89,27.89,0,0,0-10-5L318.14,55a31.11,31.11,0,0,0-12.62,20.54c-27,34.73-46.23,60.23-49.24,65-1.84,2.91-3.31,5.89-3.31,5.89a64.45,64.45,0,0,0-3.32,8.1l.74,8.1L269.71,327,99.4,353.62c-1.53.07-10.54.62-16.88,8.19a23.08,23.08,0,0,0-5.06,11.42c-2.18,2.83-4.8,6.12-7.84,9.72-6,7.13-7.07,7.68-14.13,15.7C42,414,45.91,411.9,35.86,423c-3.74,4.13-7.35,7.8-9.42,14.13-.61,1.88-1.15,4.15-1.57,10.21a151.72,151.72,0,0,0,0,21.2c1.33,18.35,2.36,25.9,2.36,25.9,5,36.65,1.08,15.12,7.06,55.74,7.42,50.43,17.09,108.77,18.84,119.33a27.24,27.24,0,0,0,8.64,10.2,27.92,27.92,0,0,0,13.34,4.71c23.08,2.59,39.62-.21,46.32-2.35h0l64-9.39,133-17.3q5,39.64,10.21,79.28,8.08,62.05,16.49,124l4.71,34.54a27.11,27.11,0,0,0,23.55,18.06l216.48-22.49a45.89,45.89,0,0,0,9.61-5,46.43,46.43,0,0,0,11.11-10.65q25-33.24,50-66.46a29.55,29.55,0,0,0,3.63-4.37,30.31,30.31,0,0,0,5-14L645.43,613.17l152.65-16.48c2.47-.34,21.74-5.74,27.67-9.33,6.47-3.92,20.18-22.38,20.91-24.26,14.18-20.36,17.79-28.75,31.4-48.46a28.69,28.69,0,0,0,17.36-23.48Q881.41,379.11,867.41,267.05ZM636.3,546.19l20.92-2.65-20.89,2.88Z"/><path id="main" class="cls-2" d="M335.63,316.71,99.4,353.62c-1.53.07-10.54.62-16.88,8.19a23.27,23.27,0,0,0-5.28,13.72q15.32,111.93,30.62,223.85a27.12,27.12,0,0,0,24.29,16.9L372.89,584.6l31.68,229.13a32.41,32.41,0,0,0,9.5,21.12A31.85,31.85,0,0,0,431,843.3l215.4-28.51a31.43,31.43,0,0,0,17.94-12.47,30.31,30.31,0,0,0,5-14q-16.5-121.06-33-242.12l237.11-30a28.76,28.76,0,0,0,22-25q-14-112.05-28-224.11a64,64,0,0,0-13-11,63.31,63.31,0,0,0-12-6l-241.12,33L567.26,46a29,29,0,0,0-10-16,27.89,27.89,0,0,0-10-5L318.14,55a31.25,31.25,0,0,0-13,25Q320.39,198.34,335.63,316.71Z"/><g id="shadow"><path class="cls-3" d="M81.39,368c-2.62,3.56-6.61,8.8-11.77,14.92-6,7.13-7.07,7.68-14.13,15.7C42,414,45.91,411.9,35.86,423c-3.74,4.13-7.35,7.8-9.42,14.13-.61,1.88-1.15,4.15-1.57,10.21a151.72,151.72,0,0,0,0,21.2c1.33,18.35,2.36,25.9,2.36,25.9,5,36.65,1.08,15.12,7.06,55.74,7.42,50.43,17.09,108.77,18.84,119.33a27.24,27.24,0,0,0,8.64,10.2,27.92,27.92,0,0,0,13.34,4.71c23.08,2.59,39.62-.21,46.32-2.35h0l64-9.39,133-17.3q5,39.64,10.21,79.28,8.08,62.05,16.49,124l4.71,34.54a27.11,27.11,0,0,0,23.55,18.06l216.48-22.49a45.89,45.89,0,0,0,9.61-5,46.43,46.43,0,0,0,11.11-10.65l51.69-68.64L433.09,840.62c-5.64-.51-12-2.22-16.49-7.06-4.65-5-5.27-11.39-5.49-13.35-1.52-13.7-15.75-109.94-35.33-242.57L134.78,613a22.73,22.73,0,0,1-25.91-18.84Z"/><path class="cls-3" d="M269.91,328.65l67-7.37Q322,197.37,307.1,73.46c-27.79,35.76-47.75,62.17-50.82,67-1.84,2.91-3.31,5.89-3.31,5.89a64.45,64.45,0,0,0-3.32,8.1l.74,8.1Q260.15,245.61,269.91,328.65Z"/><path class="cls-3" d="M645.05,613.21l-9-66.75L879.2,513c-14.56,20.92-18,29.19-32.54,50.11-.73,1.88-14.44,20.34-20.91,24.26-5.93,3.59-25.2,9-27.67,9.33Z"/></g><g id="symbols"><path id="circle" class="cls-4" d="M832.21,371.72a95.91,95.91,0,0,0-22.53-38.29,83.54,83.54,0,0,0-31.53-21c-14.79-5.43-27.09-5-38.29-4.51-10.15.4-20,.89-31.54,6-8.94,4-14.89,9-20.27,13.51-4.78,4-12.72,10.71-19.52,21A87.46,87.46,0,0,0,655,391.25c-1.11,22.82,7.06,39.45,12,49.55,5.26,10.72,11.25,22.91,24.77,33,14,10.46,28.1,12.81,36.79,14.26a97.66,97.66,0,0,0,42.8-2.25,92.56,92.56,0,0,0,39.79-24,91.51,91.51,0,0,0,22.53-38.29C840.47,399.38,834.61,379.49,832.21,371.72Zm-27.78,31.54c-.46,5.9-2.43,26.78-20.28,42.05-20.84,17.82-46.25,13.39-49.55,12.76-32.92-6.32-45.11-37.9-45.8-39.79-1.32-3.61-9.95-28.49,4.5-52.56,12.66-21.08,34-26.57,39.05-27.78a55.84,55.84,0,0,1,24.77-.75c18.26,3.67,29,15.72,32.29,19.52C806.15,376.05,804.75,399.17,804.43,403.26Z"/><path id="triangle" class="cls-4" d="M435.22,80,362,267.37l198.15-28Zm9.33,60.31,61.74,76.82-96.2,10.77Q427.33,184.09,444.55,140.3Z"/><path id="rectangle" class="cls-4" d="M292.73,375.91,131.36,398.37q9.55,83.17,19.13,166.36l167.2-22.46ZM177.94,530.63Q171.28,477.8,164.63,425l104-14.45q6.64,52.56,13.31,105.12Z"/><g id="cross"><path class="cls-4" d="M447.48,772.24,572,605.4,597.56,623,470.63,789.8Z"/><path class="cls-4" d="M429.6,646.39,448.28,623,612.73,748.29l-18.78,25Z"/></g></g></svg>