<svg id="Layer_1" data-name="Layer 1" xmlns="http://www.w3.org/2000/svg" viewBox="0 0 972.96 1003.26"><defs><style>.cls-1{fill:#fff;}.cls-2{fill:#68bc46;stroke:#fff;stroke-miterlimit:10;stroke-width:16px;}</style></defs><path class="cls-1" d="M725.88,605.43c20.24-.76,50.09-8,54.59-24.81,4.82-18-21.59-39.26-34.74-49.62-28.71-22.61-81.52-55.58-213.36-74.43a952.83,952.83,0,0,0-143.9-9.92c-79.91.63-162.2,1.29-173.67,34.73-6.82,19.88,11.9,49.79,34.73,59.55,26.22,11.2,41.54-11.14,99.24-19.85,13.62-2.06,40.5-1.37,94.28,0,45.55,1.16,68.65,1.8,84.35,5,28.69,5.77,49.29,15.5,89.32,34.74C680.65,591.49,693.49,606.66,725.88,605.43Z" transform="translate(-13.98 -10.64)"/><path class="cls-1" d="M332.35,610.4c-25.66,3.78-101.73,15-104.21,39.69-1.37,13.68,20,29.63,39.7,34.74,23.28,6,35.05-5.44,69.69-14.47,30.72-8,60.1-7.14,118.87-5.38,27.58.82,51.18,2.89,69.47,5,41.58,6.61,72.67,18.94,94.27,29.77,35.65,17.87,58.57,38.18,74.62,29.19,10.53-5.91,14.69-22.52,13.3-34C700.13,629.65,496.72,586.13,332.35,610.4Z" transform="translate(-13.98 -10.64)"/><path class="cls-1" d="M656.42,312.67c-22.33-5.94-167.77-43.35-352.31-29.77C249,287,200.32,294.83,185,327.56c-7.76,16.62-7.09,40,5,54.58,19.87,24,62.54,14.05,124.05,5,120.19-17.75,191.14-28.23,268-9.92,67.78,16.16,119.08,39.7,119.08,39.7,50.41,23.12,76.86,44.2,109.17,34.73,20.84-6.11,44.9-25.16,44.66-44.66C854.38,365.34,743.31,335.79,656.42,312.67Z" transform="translate(-13.98 -10.64)"/><path class="cls-2" d="M959.1,402c-11.35-43.7-42.35-157.11-143.9-258A532.27,532.27,0,0,0,676.26,44.73C627.09,29,497.49-5.1,348.77,44.73c-123.41,41.34-194.54,118.53-208.4,134C114.22,207.84,44.26,293.24,26.24,421.84a458.17,458.17,0,0,0,5,153.82c11.62,57,31.22,96.63,54.58,143.9,28.8,58.27,45.43,91.91,79.4,129,45.87,50.1,93.67,74.06,153.82,104.2,51.36,25.75,84.37,42.29,134,49.62,65.65,9.71,117.38-3.08,143.9-9.92,102.27-26.36,166.77-85.72,208.41-124.05,63.21-58.18,97.75-114.49,109.16-134,20.38-34.82,48.12-82.21,59.54-148.86C987,509.5,971.63,450.24,959.1,402ZM616.72,560.78c-40-19.24-60.63-29-89.32-34.74-15.7-3.16-38.8-3.8-84.35-5-53.78-1.37-80.66-2.06-94.28,0-57.7,8.71-73,31-99.24,19.85-22.83-9.76-41.55-39.67-34.73-59.55,11.47-33.44,93.76-34.1,173.67-34.73a952.83,952.83,0,0,1,143.9,9.92C664.21,475.42,717,508.39,745.73,531c13.15,10.36,39.56,31.61,34.74,49.62-4.5,16.8-34.35,24-54.59,24.81C693.49,606.66,680.65,591.49,616.72,560.78Zm78,168.12c-16,9-39-11.32-74.62-29.19-21.6-10.83-52.69-23.16-94.27-29.77-18.29-2.07-41.89-4.14-69.47-5-58.77-1.76-88.15-2.64-118.87,5.38-34.64,9-46.41,20.5-69.69,14.47-19.71-5.11-41.07-21.06-39.7-34.74,2.48-24.67,78.55-35.91,104.21-39.69,164.37-24.27,367.78,19.25,375.71,84.46C709.45,706.38,705.29,723,694.76,728.9ZM810.24,451.61c-32.31,9.47-58.76-11.61-109.17-34.73,0,0-51.3-23.54-119.08-39.7-76.81-18.31-147.76-7.83-267.95,9.92-61.51,9.09-104.18,19-124-5-12.06-14.55-12.73-38-5-54.58,15.3-32.73,64-40.6,119.09-44.66,184.54-13.58,330,23.83,352.31,29.77,86.89,23.12,198,52.67,198.48,94.28C855.14,426.45,831.08,445.5,810.24,451.61Z" transform="translate(-13.98 -10.64)"/></svg>