<svg width="75" height="77" viewBox="0 0 75 77" fill="none" xmlns="http://www.w3.org/2000/svg">
<g filter="url(#filter0_d_16_11)">
<path d="M62.58 18.2861V17.5019H61.7959H13.3871H12.603V18.2861V51.5822V52.3663H13.3871H61.7959H62.58V51.5822V18.2861Z" fill="white" stroke="#F2F2F2" stroke-width="1.56827"/>
<path d="M68.7248 27.8276L68.7248 27.8277L68.7343 27.8642C69.5767 31.1065 70.6457 35.2207 69.7426 40.4961C68.9519 45.1131 67.0293 48.3985 65.6576 50.7425L65.6468 50.761L68.7248 27.8276ZM68.7248 27.8276C67.9514 24.8532 65.8251 17.0641 58.8493 10.1352L58.8491 10.135M68.7248 27.8276L58.8491 10.135M58.8491 10.135C56.0568 7.36371 52.8354 5.0614 49.3092 3.31698L49.2568 3.29106M58.8491 10.135L49.2568 3.29106M49.2568 3.29106L49.2012 3.27319M49.2568 3.29106L49.2012 3.27319M49.2012 3.27319C45.8329 2.19218 36.9328 -0.149755 26.7088 3.27632C18.229 6.11741 13.3404 11.4181 12.3715 12.4982C10.5723 14.5029 5.75236 20.3833 4.5101 29.2496L4.50982 29.2516M49.2012 3.27319L4.50982 29.2516M4.50982 29.2516C4.02503 32.7797 4.14054 36.3644 4.85145 39.8539L4.8515 39.8542M4.50982 29.2516L4.8515 39.8542M4.8515 39.8542C5.65376 43.7848 7.01047 46.5287 8.57686 49.6967L8.58492 49.713L8.58504 49.7133L8.61042 49.7647C10.5237 53.6376 11.685 55.9883 14.0435 58.5641L14.0435 58.5642M4.8515 39.8542L14.0435 58.5642M14.0435 58.5642C17.2262 62.0397 20.5532 63.7058 24.5738 65.7191L24.6096 65.737L24.6097 65.7371L24.6643 65.7644C28.0774 67.4745 30.3928 68.6346 33.8481 69.1458L33.8483 69.1458M14.0435 58.5642L33.8483 69.1458M33.8483 69.1458C38.419 69.8206 42.0189 68.9286 43.827 68.4622C50.8842 66.6472 55.3366 62.5492 58.1423 59.9667L58.1659 59.945L58.1659 59.945M33.8483 69.1458L58.1659 59.945M58.1659 59.945C62.4905 55.9642 64.8577 52.1143 65.6461 50.7621L58.1659 59.945ZM45.3006 37.9858L45.3011 37.9861C46.389 38.5096 47.2592 38.9666 47.9834 39.3544C48.1527 39.4451 48.3126 39.5312 48.4646 39.613C48.97 39.8851 49.3874 40.1098 49.7686 40.297C50.7202 40.7641 51.3486 40.9482 52.2661 40.9136C52.8822 40.8899 53.6358 40.7666 54.2476 40.5343C54.9122 40.282 55.1587 40.0017 55.2054 39.827C55.2277 39.7435 55.2276 39.6118 55.1381 39.4023C55.0471 39.189 54.8832 38.9443 54.6549 38.6797C54.1966 38.1487 53.5876 37.6598 53.1405 37.3088L53.1396 37.3081C51.3361 35.888 47.9226 33.7177 39.1778 32.4675L39.1758 32.4673C36.0135 32.0069 32.8209 31.7866 29.6253 31.8082C26.9267 31.83 24.2605 31.8526 22.1725 32.1413C21.1277 32.2858 20.2821 32.4904 19.6714 32.766C19.0563 33.0436 18.79 33.341 18.6968 33.6122L45.3006 37.9858ZM45.3006 37.9858C42.6236 36.7001 41.1538 36.0024 39.1145 35.5903L39.1137 35.5901M45.3006 37.9858L39.1137 35.5901M39.1137 35.5901C37.974 35.361 36.3332 35.3186 33.3112 35.2419M39.1137 35.5901L33.3112 35.2419M50.9489 28.3119L50.956 28.3152C51.7512 28.68 52.4591 29.0373 53.0924 29.357C53.146 29.3841 53.199 29.4108 53.2514 29.4373C53.932 29.7806 54.5132 30.0697 55.0504 30.2908C56.0582 30.7057 56.8222 30.8429 57.6199 30.6427L57.7427 30.6066C58.325 30.4357 58.9726 30.074 59.4616 29.6206C59.9677 29.1513 60.1838 28.7013 60.1796 28.3681L60.1796 28.3677C60.1755 28.0361 59.946 27.5866 59.2124 27.0299C58.4999 26.4892 57.4575 25.9614 56.1812 25.451C53.6344 24.4327 50.3594 23.5611 47.4268 22.7808C45.9634 22.3922 36.2865 19.9016 24.0146 20.8052L24.0145 20.8052C22.168 20.941 20.5034 21.1373 19.1877 21.5492C17.8688 21.962 17.0441 22.5461 16.6658 23.355C16.2425 24.262 16.3179 25.4966 16.893 26.1911L50.9489 28.3119ZM50.9489 28.3119L50.9417 28.3088M50.9489 28.3119L50.9417 28.3088M50.9417 28.3088C48.3161 27.1671 45.5951 26.2589 42.8101 25.5947L42.81 25.5947M50.9417 28.3088L42.81 25.5947M42.81 25.5947C37.5023 24.3295 32.5981 25.054 24.6376 26.23M42.81 25.5947L24.6376 26.23M33.3112 35.2419C31.5085 35.1955 30.1443 35.1606 29.1169 35.1548M33.3112 35.2419C33.3113 35.2419 33.3113 35.2419 33.3114 35.2419L33.2913 36.0257L29.1169 35.1548M29.1169 35.1548C28.1017 35.1491 27.3651 35.1708 26.8401 35.2504M29.1169 35.1548L26.8401 35.2504M26.8401 35.2504C25.0483 35.5208 23.8221 35.9831 22.91 36.327C22.7875 36.3732 22.6707 36.4172 22.559 36.4584C21.6201 36.8041 21.1792 36.8869 20.597 36.6382C20.009 36.3868 19.4284 35.8477 19.0482 35.2113C18.6568 34.556 18.5743 33.9702 18.6967 33.6125L26.8401 35.2504ZM24.6376 26.23L24.5096 26.2489M24.6376 26.23L24.5096 26.2489M24.5096 26.2489C24.0357 26.3189 23.5841 26.3886 23.1535 26.455M24.5096 26.2489L23.1535 26.455M23.1535 26.455C21.6625 26.6851 20.4235 26.8763 19.3842 26.9073M23.1535 26.455L19.3842 26.9073M19.3842 26.9073C18.0456 26.9472 17.3198 26.7058 16.8932 26.1912L19.3842 26.9073ZM49.8206 49.3056L49.8205 49.3056C49.6788 49.3851 49.3868 49.4133 48.5461 48.9866C48.2045 48.8133 47.8305 48.5972 47.3965 48.3464C47.3402 48.3139 47.283 48.2808 47.2247 48.2472C46.7249 47.9588 46.1628 47.6387 45.5422 47.3277L45.5421 47.3276C44.0312 46.5708 41.8664 45.7129 38.9789 45.2537L38.9614 45.2509L38.9438 45.2489C37.6985 45.1082 36.0904 44.9676 34.2118 44.9112L34.2117 44.9111L34.1056 44.908C30.262 44.7926 28.1819 44.7302 26.0039 45.2975L26.0036 45.2976C25.2032 45.5065 24.5164 45.7553 23.9795 45.9499C23.7321 46.0395 23.5165 46.1176 23.3363 46.1749C22.7398 46.3648 22.3085 46.4232 21.7148 46.2693L21.7144 46.2693C21.1623 46.1264 20.5768 45.8257 20.154 45.4746C19.9438 45.3001 19.7982 45.1332 19.7137 44.9934C19.6287 44.8529 19.6303 44.7832 19.6313 44.7727C19.6328 44.7586 19.6788 44.576 20.1669 44.2922C20.6124 44.0332 21.2473 43.7968 21.9811 43.5895C23.4396 43.1775 25.1002 42.9314 25.967 42.8034C31.391 42.0028 37.4729 42.3211 42.248 43.3764C44.6381 43.9046 46.659 44.6085 48.0949 45.4208C49.5741 46.2576 50.2325 47.0921 50.3181 47.7972L50.3183 47.7986C50.3509 48.0632 50.3192 48.4157 50.2101 48.7322C50.0977 49.0583 49.9435 49.2367 49.8206 49.3056Z" fill="#67BC45" stroke="#F2F2F2" stroke-width="1.56827"/>
</g>
<defs>
<filter id="filter0_d_16_11" x="0.295192" y="0.698639" width="73.7114" height="75.7479" filterUnits="userSpaceOnUse" color-interpolation-filters="sRGB">
<feFlood flood-opacity="0" result="BackgroundImageFix"/>
<feColorMatrix in="SourceAlpha" type="matrix" values="0 0 0 0 0 0 0 0 0 0 0 0 0 0 0 0 0 0 127 0" result="hardAlpha"/>
<feOffset dy="3.13654"/>
<feGaussianBlur stdDeviation="1.56827"/>
<feComposite in2="hardAlpha" operator="out"/>
<feColorMatrix type="matrix" values="0 0 0 0 0 0 0 0 0 0 0 0 0 0 0 0 0 0 0.25 0"/>
<feBlend mode="normal" in2="BackgroundImageFix" result="effect1_dropShadow_16_11"/>
<feBlend mode="normal" in="SourceGraphic" in2="effect1_dropShadow_16_11" result="shape"/>
</filter>
</defs>
</svg>
