<svg id="Layer_3" data-name="Layer 3" xmlns="http://www.w3.org/2000/svg" viewBox="0 0 1000 1000"><defs><style>.cls-1{fill:#007e00;}.cls-2{fill:#fff;}</style></defs><circle class="cls-1" cx="500.37" cy="500.29" r="498.36"/><path class="cls-2" d="M502.19,145.67a550.76,550.76,0,0,1,259.33-70,436,436,0,0,0-91.33-47.22c-11-4.11-66-24.21-141.9-27.75A545.69,545.69,0,0,0,344.75,25c-36.59,11.69-60.25,23.92-65.64,26.74a366.52,366.52,0,0,0-36.47,21.88c33.84,5.43,70.17,12.73,108.47,22.54A1211.18,1211.18,0,0,1,502.19,145.67Z"/><path class="cls-2" d="M635,275.91c23.07-21.35,43.13-38.89,58.61-52.09,0,0,31.23-26.2,72.93-54.7a249.25,249.25,0,0,1,27.35-15.63c14.15-7,22.15-9.34,30-10.42,6-.82,12.94-1.55,20.83,1.3,7.5,2.71,12,7.35,16.48,12,14.42,15.15,25.42,27.56,33.89,37.88a219.47,219.47,0,0,1,16.1,21.56c2.88,4.46,4,6.62,7.29,12.16,7.82,13.17,12.26,19.26,17,26.74,8.24,13,13.32,23.77,21.88,42.54a472.33,472.33,0,0,1,21.88,55.92c2.55,8.13,12.35,40.27,17,88.73,2.88,29.91,8.92,99.24-13.37,184.76a494.25,494.25,0,0,1-37.68,99.67,479.11,479.11,0,0,1-49.84,77.8c0-6,.09-14.85.13-25.54.06-16.92.21-25.39,0-28.65a212.91,212.91,0,0,0-9.12-48.19c-20.95-69.51-44.28-114.61-44.28-114.61C813.58,532,741.58,417.85,635,275.91Z"/><path class="cls-2" d="M362.92,275.91a493.05,493.05,0,0,0-35.16-36.46A348.42,348.42,0,0,0,299.1,214.7c-6-4.6-9.28-6.72-24.74-18.23-10.65-7.93-11.4-8.62-15.63-11.72a323.84,323.84,0,0,0-36.47-23.45s-22-12.06-45.58-18.23a38.92,38.92,0,0,0-9.12-1.3,31,31,0,0,0-10.42,1.3,30.33,30.33,0,0,0-7.81,3.91c-9.67,6.51-21.72,20.71-23.38,22.68-7.26,8.73-11.14,13.88-13.37,17-.47.67-1.85,2.64-3.86,5.21-3,3.84-5.44,6.48-5.86,7-2.41,2.65-14.71,17.52-32.82,48.62a509,509,0,0,0-25.53,48.62,490.3,490.3,0,0,0-29.33,85.33,500.19,500.19,0,0,0,87.68,420.33c-.71-6.25-1.45-14.58-1.72-24.41,0,0-1.92-28.06,3.91-56,10.32-49.47,31.26-92.47,31.26-92.47A1776.41,1776.41,0,0,1,362.92,275.91Z"/><path class="cls-2" d="M502.19,400.94c14.54,11.58,33.31,26.94,54.7,45.58,46.84,40.84,79.75,74.37,87.26,82.05,31,31.8,30.59,34.5,132.84,158.89a449.58,449.58,0,0,1,44.28,67.73,181.51,181.51,0,0,1,16.93,44.28,178.38,178.38,0,0,1,3.91,26c1.07,12.21.56,18,.13,21.3a75.91,75.91,0,0,1-3,13.28l-6,11A474.43,474.43,0,0,1,603,989.68a490.16,490.16,0,0,1-91.77,10.19c-5.19.07-19.6.16-38.37-1a553,553,0,0,1-67.38-8.7c-19.6-3.72-43.85-8.44-74.14-19.45-14.77-5.36-26-10.41-35.25-14.58a494.05,494.05,0,0,1-52.27-26.74A374.87,374.87,0,0,1,207.34,905c-13.12-10.08-22.43-18.78-30.75-28.65-8.93-10.59-11.77-16.61-13-19.54-.92-2.14-4.86-11.7-5.21-26-.33-13.39,2.64-24.24,6.51-35.17,7.9-22.31,17.28-38.62,26-53.4,15.7-26.45,23.56-39.68,33.86-54.7,38.65-56.31,84.46-106,92.47-114.6C386.39,498.36,458.56,436.59,502.19,400.94Z"/></svg>