<svg id="Layer_3" data-name="Layer 3" xmlns="http://www.w3.org/2000/svg" viewBox="0 0 1000 1000"><defs><style>.cls-1{fill:#007e00;}.cls-2{fill:#fff;}</style></defs><path class="cls-1" d="M500.36,985.1A485,485,0,0,1,311.64,53.55,485,485,0,0,1,689.08,947,481.87,481.87,0,0,1,500.36,985.1Z"/><path class="cls-2" d="M500.36,24.84c262.57,0,475.43,212.86,475.43,475.44S762.93,975.71,500.36,975.71,24.93,762.85,24.93,500.28,237.78,24.84,500.36,24.84m0-18.78A494.34,494.34,0,0,0,308,955.65,494.34,494.34,0,0,0,692.74,44.9,491.29,491.29,0,0,0,500.36,6.06Z"/><path class="cls-2" d="M502.09,162A525.24,525.24,0,0,1,749.48,95.21a416.29,416.29,0,0,0-87.12-45c-10.47-3.92-63-23.09-135.37-26.47a509.25,509.25,0,0,0-83.49,3.47,504.08,504.08,0,0,0-91.61,19.72C317,58,294.41,69.7,289.28,72.39a349,349,0,0,0-34.79,20.87c32.28,5.18,66.94,12.15,103.47,21.51A1156.12,1156.12,0,0,1,502.09,162Z"/><path class="cls-2" d="M628.82,286.23c22-20.37,41.14-37.1,55.91-49.7,0,0,29.79-25,69.58-52.18a236.82,236.82,0,0,1,26.09-14.91c13.49-6.68,21.13-8.91,28.57-9.94,5.68-.79,12.36-1.48,19.88,1.24,7.15,2.59,11.45,7,15.72,11.49,13.75,14.45,24.25,26.28,32.33,36.13a208.1,208.1,0,0,1,15.36,20.57c2.74,4.25,3.83,6.31,7,11.6,7.45,12.56,11.69,18.37,16.23,25.51,7.87,12.37,12.71,22.68,20.88,40.58A453.19,453.19,0,0,1,957.2,360c2.44,7.75,11.78,38.41,16.23,84.65,2.75,28.53,8.52,94.66-12.75,176.25A470.88,470.88,0,0,1,924.73,716a456.4,456.4,0,0,1-47.54,74.21c0-5.74.08-14.16.12-24.36.06-16.14.2-24.22,0-27.33a202.52,202.52,0,0,0-8.7-46c-20-66.32-42.24-109.34-42.24-109.34C799.15,530.57,730.46,421.64,628.82,286.23Z"/><path class="cls-2" d="M369.23,286.23a466.7,466.7,0,0,0-33.55-34.79,331.64,331.64,0,0,0-27.33-23.61c-5.75-4.38-8.85-6.41-23.61-17.39-10.16-7.56-10.87-8.23-14.91-11.18A308.39,308.39,0,0,0,235,176.89s-21-11.5-43.48-17.39a37.29,37.29,0,0,0-8.7-1.24,29.33,29.33,0,0,0-9.94,1.24,28.74,28.74,0,0,0-7.45,3.73c-9.22,6.2-20.72,19.76-22.3,21.64-6.94,8.33-10.64,13.23-12.76,16.23-.45.64-1.76,2.52-3.68,5-2.87,3.66-5.19,6.19-5.59,6.63-2.3,2.53-14,16.72-31.31,46.38a483.72,483.72,0,0,0-24.35,46.39,466.63,466.63,0,0,0-28,81.4,477,477,0,0,0,83.64,401c-.68-6-1.38-13.9-1.64-23.28,0,0-1.84-26.77,3.72-53.42C133.07,664,153,622.93,153,622.93a1695.14,1695.14,0,0,1,216.19-336.7Z"/><path class="cls-2" d="M502.09,405.5C516,416.55,533.87,431.2,554.27,449c44.69,39,76.09,70.94,83.25,78.27,29.61,30.33,29.18,32.92,126.73,151.58a428.83,428.83,0,0,1,42.24,64.61,173,173,0,0,1,16.15,42.24,169.85,169.85,0,0,1,3.73,24.85c1,11.66.54,17.14.12,20.32a71.85,71.85,0,0,1-2.84,12.68L818,854A452.64,452.64,0,0,1,598.3,967.15a467.48,467.48,0,0,1-87.54,9.72c-5,.07-18.71.16-36.61-1a527,527,0,0,1-64.28-8.3C391.18,964,368,959.53,339.14,949c-14.09-5.12-24.78-9.93-33.63-13.92a468,468,0,0,1-49.86-25.51,358.52,358.52,0,0,1-34.85-23.28c-12.5-9.62-21.39-17.92-29.32-27.33-8.52-10.11-11.24-15.85-12.43-18.64a68.49,68.49,0,0,1-5-24.85c-.31-12.77,2.52-23.12,6.21-33.55,7.54-21.28,16.49-36.84,24.85-50.94,15-25.24,22.48-37.86,32.31-52.18,36.87-53.73,80.57-101.1,88.21-109.33C391.62,498.44,460.47,439.51,502.09,405.5Z"/></svg>