<svg width="79" height="57" viewBox="0 0 79 57" fill="none" xmlns="http://www.w3.org/2000/svg">
<g filter="url(#filter0_d_16_15)">
<path d="M23.0272 6.7142H22.3226V7.41879V42.9163V43.6209H23.0272H58.5247H59.2293V42.9163V7.41879V6.7142H58.5247H23.0272Z" fill="white" stroke="#F2F2F2" stroke-width="1.40918"/>
<path d="M69.9171 4.92134L69.917 4.9214C71.4537 6.1858 72.643 7.82078 73.3727 9.67214L69.9171 4.92134ZM69.9171 4.92134L69.9085 4.91449M69.9171 4.92134L69.9085 4.91449M69.9085 4.91449C68.3424 3.66632 66.8326 3.18273 65.8283 2.86469L65.8263 2.86405M69.9085 4.91449L65.8263 2.86405M65.8263 2.86405C64.1135 2.32738 62.8588 2.27542 61.2655 2.20943C60.7465 2.18793 60.1915 2.16494 59.573 2.12323L59.5727 2.12321M65.8263 2.86405L59.5727 2.12321M59.5727 2.12321C58.1166 2.0256 57.2811 1.89637 56.4303 1.74423C56.2876 1.71869 56.1437 1.69238 55.9959 1.66535C55.2511 1.52913 54.4085 1.37501 53.1168 1.2132L53.1162 1.21313M59.5727 2.12321L53.1162 1.21313M53.1162 1.21313C51.583 1.02233 50.3966 0.945794 40.3385 1.00515C34.2019 1.0415 32.0255 1.08559 30.3114 1.1298L30.3113 1.1298M53.1162 1.21313L30.3113 1.1298M30.3113 1.1298L30.3295 1.83415M30.3113 1.1298L30.3295 1.83415M30.3295 1.83415L30.3113 1.1298L30.3111 1.1298L30.3106 1.12982L30.3089 1.12986L30.3021 1.13004L30.2757 1.13076L30.1722 1.13373C30.0807 1.13644 29.9445 1.14063 29.765 1.14663C29.406 1.15861 28.8735 1.17777 28.1779 1.20655C26.7876 1.26407 24.7458 1.36 22.1356 1.51371C20.2035 1.60441 18.2786 1.81067 16.3711 2.13138L16.3688 2.13178M30.3295 1.83415L16.3688 2.13178M16.3688 2.13178C15.1287 2.34463 14.1037 2.5797 13.3833 2.74927L13.3053 2.76763M16.3688 2.13178L13.3053 2.76763M13.3053 2.76763L13.2334 2.80306M13.3053 2.76763L13.2334 2.80306M13.2334 2.80306C11.3036 3.7538 8.10557 5.71846 6.2124 9.40712L6.21206 9.40778M13.2334 2.80306L6.21206 9.40778M6.21206 9.40778C5.16697 11.4494 4.96593 13.5296 4.61495 17.2759L4.61491 17.2764M6.21206 9.40778L4.61491 17.2764M4.61491 17.2764C4.225 21.4679 4.1919 25.685 4.51597 29.8821L4.51599 29.8823M4.61491 17.2764L4.51599 29.8823M4.51599 29.8823C4.7389 32.7562 5.02187 34.2484 5.28866 35.5249C5.31157 35.6346 5.33429 35.7423 5.35677 35.8489C5.59078 36.9584 5.79935 37.9473 5.93697 39.7216M4.51599 29.8823L5.93697 39.7216M22.6782 49.0151C22.1794 49.0107 21.7086 49.0101 21.2599 49.0095C18.4894 49.0059 16.5585 49.0035 14.0502 48.1023M22.6782 49.0151L9.48182 45.3618C10.7984 46.5818 12.354 47.515 14.0502 48.1023M22.6782 49.0151C24.7671 49.0335 25.4552 49.102 26.3525 49.1913M22.6782 49.0151L26.3525 49.1913M14.0502 48.1023L13.8119 48.7654C13.8132 48.7659 13.8144 48.7663 13.8157 48.7667M14.0502 48.1023L13.8196 48.7681C13.8183 48.7677 13.817 48.7672 13.8157 48.7667M13.8157 48.7667C12.0288 48.1475 10.39 47.164 9.0029 45.8785L8.99815 45.8741C8.37653 45.2873 7.30387 44.2609 6.59957 42.5898L6.59831 42.5868C6.21914 41.6755 5.99559 40.7069 5.93697 39.7216M13.8157 48.7667L5.93697 39.7216M26.3525 49.1913C27.3399 49.2896 28.5806 49.4131 32.2201 49.5227L26.3525 49.1913ZM30.7247 36.6916C30.6784 29.2606 30.6315 21.8286 30.584 14.3958L49.5046 25.4381L30.7247 36.6916Z" fill="#EB2127" stroke="#F2F2F2" stroke-width="1.40918"/>
</g>
<defs>
<filter id="filter0_d_16_15" x="0.772465" y="0.28082" width="77.5634" height="56.3707" filterUnits="userSpaceOnUse" color-interpolation-filters="sRGB">
<feFlood flood-opacity="0" result="BackgroundImageFix"/>
<feColorMatrix in="SourceAlpha" type="matrix" values="0 0 0 0 0 0 0 0 0 0 0 0 0 0 0 0 0 0 127 0" result="hardAlpha"/>
<feOffset dy="2.81836"/>
<feGaussianBlur stdDeviation="1.40918"/>
<feComposite in2="hardAlpha" operator="out"/>
<feColorMatrix type="matrix" values="0 0 0 0 0 0 0 0 0 0 0 0 0 0 0 0 0 0 0.25 0"/>
<feBlend mode="normal" in2="BackgroundImageFix" result="effect1_dropShadow_16_15"/>
<feBlend mode="normal" in="SourceGraphic" in2="effect1_dropShadow_16_15" result="shape"/>
</filter>
</defs>
</svg>
