<?xml version="1.0" encoding="utf-8"?>
<!-- Generator: Adobe Illustrator 26.0.2, SVG Export Plug-In . SVG Version: 6.00 Build 0)  -->
<svg version="1.1" id="Layer_1" xmlns="http://www.w3.org/2000/svg" xmlns:xlink="http://www.w3.org/1999/xlink" x="0px" y="0px"
	 viewBox="0 0 627.65 435.14" style="enable-background:new 0 0 627.65 435.14;" xml:space="preserve">
<style type="text/css">
	.st0{fill:#FFFFFF;}
	.st1{fill:#EA1F27;}
</style>
<g>
	<path class="st0" d="M227.32,329.14c63.15-37.84,126.31-75.69,189.46-113.53c-63.63-37.13-127.25-74.27-190.88-111.4
		C226.38,179.18,226.85,254.16,227.32,329.14z"/>
	<path class="st1" d="M622.41,117.26c-0.01-7.5,0.07-23.67-7.38-42.41c-9.7-24.39-26.09-37.84-29.5-40.56
		c-13.26-10.56-25.97-14.67-35.03-17.52c-19.66-6.17-31.59-4.86-55.31-6.45c-26.96-1.81-31.29-4.83-59-8.3
		C422.8,0.35,412.5-0.36,320.95,0.18c-55.71,0.33-75.43,0.73-90.94,1.13c0,0-26.71,0.69-74.08,3.48
		c-14.33,0.84-30.52,1.9-51.63,5.53c-11.07,1.9-20.24,3.96-26.73,5.53c-16.96,8.38-44.61,25.44-60.85,57.16
		C7.9,90.24,6.11,107.78,2.89,142.15c-4.27,45.58-3.14,84.56-0.92,113.39c3.97,51.57,10.1,53.11,12.91,89.42
		c0.3,3.85,0.95,13.09,5.53,23.97c5.85,13.88,14.75,22.44,20.28,27.66c13.95,13.16,29.12,20.45,41.49,24.89
		c26.48,9.51,45.87,8.02,78.36,8.3c39.85,0.34,23.58,2.7,86.66,4.61c105.09,3.18,98.47-4.93,183.46-1.84
		c14.73,0.53,43.17,1.8,80.21-3.69c37.5-5.56,52.86-13.46,59.92-17.52c9.14-5.25,32.95-19.32,46.09-47.02
		c8.02-16.91,8.77-31.95,9.22-43.33C631.06,195.38,622.52,183.2,622.41,117.26z M227.32,329.14c-0.47-74.98-0.95-149.96-1.42-224.94
		c63.63,37.13,127.25,74.27,190.88,111.4C353.63,253.45,290.48,291.3,227.32,329.14z"/>
</g>
</svg>
