<svg id="vector_copy" data-name="vector copy" xmlns="http://www.w3.org/2000/svg" viewBox="0 0 110.71 158.49"><defs><style>.cls-1{fill:#ed1c24;}.cls-2{fill:#fff;}</style></defs><path id="body" class="cls-1" d="M8.73,29.87a58.74,58.74,0,0,1,15.4-18.62c4.7-3.74,12.17-9.61,23.53-11,2.89-.35,17.22-1.74,28.83,8,3.54,2.95,10.15,8.2,11.16,8.65a21.9,21.9,0,0,1,4.61,2.85,48.66,48.66,0,0,1,6.11,5.21,35.78,35.78,0,0,1,7.4,12.32c4.19,11.41,1.58,23.31-.76,34-.45,2-2.34,8.75-6.12,22.19a128.62,128.62,0,0,0-3.64,14.87A93.47,93.47,0,0,0,94,125.09a21,21,0,0,0-3.06.85,25.26,25.26,0,0,0-3.44,1.6c-.75.39-1.76.94-2.92,1.67a42.37,42.37,0,0,1-6.18-11.6,50,50,0,0,1-2-8,71.92,71.92,0,0,1-1.07-11.88c-.09-9,1-11.91,1.61-22.37,0,0,1-16.43-1.15-26.78C75.51,47.15,30.15,35.24,8.73,29.87Z"/><path id="ground" class="cls-2" d="M12.25,19c-4.08.85-6.74,4.21-7.62,5.31A19.22,19.22,0,0,0,1,33.14C-1.33,45.43,2.52,57.68,4.59,57.55c1.27-.09,1.47-4.91,4.79-5.88a4.31,4.31,0,0,1,1.6-.14c4.47.38,10.36,3.32,11.67,3.92,3.53,1.65,3-.1,16.13.85,9.32.67,9.5,1.55,13.29.87,5.69-1,8.16-3.51,10.46-2,3.07,2,1.49,8.15,3.73,8.73.76.19,1.2-.45,5.73-3.94,2.56-2,2.69-2,3.83-3,2.91-2.52,4.37-3.78,4.65-5.12.85-4-5.75-8.24-6.71-9-4.41-3.26-8.93-3.57-11.48-4.17C50.22,35.91,32.9,28.13,22.35,21.66,20.47,20.5,16.63,18.05,12.25,19Z"/><path id="ball" class="cls-2" d="M96.56,123.49a16.22,16.22,0,0,1,10.34,5.34,16.47,16.47,0,0,1,3.8,11.5c0,1.29-.31,9.33-7.2,13.78-7.39,4.77-15.43.93-15.81.73-7-3.51-8.54-10.76-8.78-12-.33-1.73-1.26-8.15,3.18-13.61C87.48,122.62,95.88,123.42,96.56,123.49Z"/></svg>